<svg width="32" height="32" viewBox="0 0 32 32" fill="none" xmlns="http://www.w3.org/2000/svg">
<rect width="32" height="32" rx="16" fill="#F9FAFB"/>
<path fill-rule="evenodd" clip-rule="evenodd" d="M23.7163 10.5714C24.2109 10.8822 24.5267 11.416 24.5499 11.9991V19.9778C24.5281 20.5012 24.2847 20.9846 23.8711 21.3051L16.6646 25.4785C16.4589 25.559 16.2416 25.5999 16.0188 25.5999C15.7756 25.5999 15.5059 25.547 15.3184 25.4559C15.2947 25.4443 15.2273 25.4073 15.1286 25.3519C15.0648 25.316 14.987 25.2721 14.8998 25.2224L12.262 23.7038L12.2616 23.7045L10.0565 22.4349L16.3651 12.0245L19.1536 12.0143L12.8616 22.6867L15.7969 24.375C15.9293 24.4289 16.0856 24.4316 16.2192 24.3833L18.6996 22.9459L16.0514 18.7895L17.6681 16.046L21.1461 21.528L21.1468 21.5277L21.8309 21.1312L18.162 15.1976L19.572 12.805L23.3624 18.7085V12.0428C23.3534 11.8517 23.2519 11.6768 23.0901 11.5737L16.2476 7.63791C16.0876 7.55923 15.8847 7.56018 15.7248 7.6404C15.7032 7.65126 8.90573 11.5861 8.87419 11.6086C8.74825 11.6989 8.66449 11.8326 8.63755 11.9825C8.63354 12.005 8.63058 12.0281 8.62917 12.0514L8.63956 18.4216L12.1793 12.9352C12.6251 12.2077 13.5962 11.9733 14.4976 11.9861L15.5555 12.014L9.3216 22.0115L7.44824 20.9321V20.252L7.44858 20.2515V11.9956C7.47635 11.4554 7.74547 10.9637 8.18696 10.6472C8.27073 10.5872 8.3598 10.5344 8.45231 10.4901C8.45231 10.4901 15.1358 6.61386 15.1937 6.58468C15.6838 6.33811 16.295 6.33847 16.7842 6.58479L23.7163 10.5714Z" fill="black"/>
<rect x="0.125" y="0.125" width="31.75" height="31.75" rx="15.875" stroke="#0F171F" stroke-opacity="0.15" stroke-width="0.25"/>
</svg>
