<svg fill="none" height="40" viewBox="0 0 40 40" width="40" xmlns="http://www.w3.org/2000/svg"><rect fill="#f9fafb" height="40" rx="10" width="40"/><rect height="39.75" rx="9.875" stroke="#0a0a0a" stroke-opacity=".15" stroke-width=".25" width="39.75" x=".125" y=".125"/><path clip-rule="evenodd" d="m9.70041 25.2455c.88899.655 2.02929.9826 3.42129.9826 1.6844 0 3.0294-.3919 4.0353-1.1755 1.006-.7954 1.7136-1.9943 2.123-3.5968.2456-.9825.4562-1.9943.6316-3.0353.0585-.3743.0878-.6842.0878-.9299 0-.8187-.2048-1.5205-.6141-2.1053-.4094-.5966-.9708-1.0411-1.6843-1.3335-.7136-.3041-1.5206-.4561-2.4213-.4561-3.3101 0-5.36292 1.6083-6.15827 4.8248-.2807 1.1814-.49707 2.1932-.6492 3.0353-.05844.3743-.08771.6902-.08771.9475 0 1.2282.43863 2.1756 1.31589 2.8422zm5.33369-2.1229c-.4562.386-1.0117.579-1.6668.579-1.1228 0-1.6843-.538-1.6843-1.6142 0-.2573.0234-.5029.0702-.7368.2105-1.1346.4211-2.0937.6316-2.8774.1988-.7954.5264-1.386.9825-1.7721.4679-.386 1.0293-.579 1.6844-.579 1.1111 0 1.6667.5322 1.6667 1.5966 0 .2574-.0234.5089-.0701.7545-.1404.8187-.3451 1.7779-.6142 2.8774-.1987.7954-.5321 1.386-1 1.772zm5.4724 2.8069c.0702.0819.1697.1229.2983.1229h2.3862c.1169 0 .228-.041.3333-.1229.1052-.0819.1695-.1871.193-.3158l.807-3.8423h2.3686c1.5323 0 2.7371-.3217 3.6143-.965.889-.6433 1.4797-1.6376 1.7721-2.9827.0702-.3158.1052-.62.1052-.9123 0-1.0177-.3976-1.7954-1.1931-2.3336-.7836-.538-1.8246-.807-3.1229-.807h-4.6671c-.1169 0-.228.041-.3333.1228-.1053.0819-.1696.1872-.193.3158l-2.4212 11.4043c-.0234.117-.0059.2222.0526.3158zm7.79-6.9829c-.3626.269-.7895.4035-1.2807.4035h-2.0178l.6667-3.1405h2.1055c.4796 0 .8187.0935 1.0176.2807.1989.1754.2983.4327.2983.772 0 .152-.0176.3274-.0527.5263-.1169.503-.3626.889-.7369 1.158z" fill="#2e2e2e" fill-rule="evenodd"/></svg>