<svg width="32" height="32" viewBox="0 0 32 32" fill="none" xmlns="http://www.w3.org/2000/svg">
<rect width="32" height="32" rx="16" fill="#F9FAFB"/>
<path d="M20.9357 12.7027C20.5832 12.5005 20.1324 12.5005 19.7336 12.7027L16.9246 14.3669L15.0174 15.4244L12.2605 17.0828C11.9079 17.2851 11.4571 17.2851 11.0583 17.0828L8.90249 15.7711C8.54993 15.5688 8.30141 15.1644 8.30141 14.7136V12.1942C8.30141 11.7897 8.50369 11.391 8.90249 11.1368L11.0583 9.87705C11.4109 9.6748 11.8617 9.6748 12.2605 9.87705L14.4163 11.1888C14.7688 11.391 15.0174 11.7955 15.0174 12.2462V13.9104L16.9246 12.801V11.0905C16.9246 10.686 16.7224 10.2873 16.3236 10.0331L12.3125 7.66389C11.9599 7.46165 11.5091 7.46165 11.1103 7.66389L7.00099 10.0851C6.60219 10.2873 6.3999 10.6918 6.3999 11.0905V15.8231C6.3999 16.2276 6.60219 16.6263 7.00099 16.8806L11.0641 19.2497C11.4166 19.452 11.8675 19.452 12.2662 19.2497L15.0231 17.6375L16.9304 16.5281L19.6873 14.9159C20.0399 14.7136 20.4907 14.7136 20.8895 14.9159L23.0453 16.1756C23.3979 16.3778 23.6464 16.7823 23.6464 17.2331V19.7525C23.6464 20.157 23.4441 20.5557 23.0453 20.8099L20.9415 22.0696C20.5889 22.2719 20.1381 22.2719 19.7393 22.0696L17.5777 20.8099C17.2252 20.6077 16.9767 20.2032 16.9767 19.7525V18.1403L15.0694 19.2497V20.9139C15.0694 21.3184 15.2717 21.7172 15.6705 21.9714L19.7336 24.3406C20.0861 24.5428 20.5369 24.5428 20.9357 24.3406L24.9988 21.9714C25.3514 21.7692 25.5999 21.3647 25.5999 20.9139V16.1294C25.5999 15.7249 25.3976 15.3262 24.9988 15.0719L20.9357 12.7027Z" fill="black"/>
<rect x="0.125" y="0.125" width="31.75" height="31.75" rx="15.875" stroke="#0F171F" stroke-opacity="0.15" stroke-width="0.25"/>
</svg>
