<svg width="1305" height="703" viewBox="0 0 1305 703" fill="none" xmlns="http://www.w3.org/2000/svg">
<g opacity="0.51">
<ellipse opacity="0.6" cx="2.67339" cy="405.417" rx="1.67339" ry="1.72711" fill="white"/>
<ellipse opacity="0.5" cx="1042.67" cy="272.727" rx="1.67339" ry="1.72711" fill="white"/>
<ellipse opacity="0.4" cx="1172.67" cy="405.417" rx="1.67339" ry="1.72711" fill="white"/>
<ellipse opacity="0.4" cx="1302.67" cy="405.417" rx="1.67339" ry="1.72711" fill="white"/>
<ellipse cx="2.67339" cy="142.293" rx="1.67339" ry="1.72711" fill="white"/>
<ellipse opacity="0.3" cx="2.67339" cy="12.2925" rx="1.67339" ry="1.72711" fill="white"/>
<ellipse opacity="0.6" cx="2.67339" cy="258.293" rx="1.67339" ry="1.72711" fill="white"/>
<ellipse opacity="0.5" cx="2.67339" cy="690.727" rx="1.67339" ry="1.72711" fill="white"/>
<ellipse cx="2.67339" cy="550.727" rx="1.67339" ry="1.72711" fill="white"/>
<ellipse cx="132.673" cy="405.417" rx="1.67339" ry="1.72711" fill="white"/>
<ellipse cx="132.673" cy="258.293" rx="1.67339" ry="1.72711" fill="white"/>
<ellipse cx="132.673" cy="142.293" rx="1.67339" ry="1.72711" fill="white"/>
<ellipse opacity="0.4" cx="132.673" cy="12.2925" rx="1.67339" ry="1.72711" fill="white"/>
<ellipse cx="132.673" cy="690.727" rx="1.67339" ry="1.72711" fill="white"/>
<ellipse opacity="0.4" cx="132.673" cy="550.727" rx="1.67339" ry="1.72711" fill="white"/>
<ellipse cx="262.673" cy="142.293" rx="1.67339" ry="1.72711" fill="white"/>
<ellipse opacity="0.4" cx="262.673" cy="12.2925" rx="1.67339" ry="1.72711" fill="white"/>
<ellipse cx="262.673" cy="690.727" rx="1.67339" ry="1.72711" fill="white"/>
<ellipse cx="262.673" cy="550.727" rx="1.67339" ry="1.72711" fill="white"/>
<ellipse opacity="0.4" cx="392.673" cy="142.293" rx="1.67339" ry="1.72711" fill="white"/>
<ellipse opacity="0.4" cx="522.673" cy="142.293" rx="1.67339" ry="1.72711" fill="white"/>
<ellipse opacity="0.4" cx="652.673" cy="142.293" rx="1.67339" ry="1.72711" fill="white"/>
<ellipse opacity="0.4" cx="392.673" cy="12.2925" rx="1.67339" ry="1.72711" fill="white"/>
<ellipse opacity="0.4" cx="522.673" cy="12.2925" rx="1.67339" ry="1.72711" fill="white"/>
<ellipse opacity="0.4" cx="652.673" cy="12.2925" rx="1.67339" ry="1.72711" fill="white"/>
<ellipse cx="392.673" cy="690.727" rx="1.67339" ry="1.72711" fill="white"/>
<ellipse cx="522.673" cy="690.727" rx="1.67339" ry="1.72711" fill="white"/>
<ellipse cx="652.673" cy="690.727" rx="1.67339" ry="1.72711" fill="white"/>
<ellipse opacity="0.3" cx="392.673" cy="550.727" rx="1.67339" ry="1.72711" fill="white"/>
<ellipse opacity="0.3" cx="522.673" cy="550.727" rx="1.67339" ry="1.72711" fill="white"/>
<ellipse opacity="0.3" cx="652.673" cy="550.727" rx="1.67339" ry="1.72711" fill="white"/>
<ellipse cx="782.673" cy="142.293" rx="1.67339" ry="1.72711" fill="white"/>
<ellipse opacity="0.4" cx="782.673" cy="12.2925" rx="1.67339" ry="1.72711" fill="white"/>
<ellipse opacity="0.5" cx="782.673" cy="690.727" rx="1.67339" ry="1.72711" fill="white"/>
<ellipse cx="912.673" cy="142.293" rx="1.67339" ry="1.72711" fill="white"/>
<ellipse cx="1042.67" cy="142.293" rx="1.67339" ry="1.72711" fill="white"/>
<ellipse cx="912.673" cy="12.2925" rx="1.67339" ry="1.72711" fill="white"/>
<ellipse cx="1042.67" cy="12.2925" rx="1.67339" ry="1.72711" fill="white"/>
<ellipse cx="912.673" cy="690.727" rx="1.67339" ry="1.72711" fill="white"/>
<ellipse cx="1042.67" cy="690.727" rx="1.67339" ry="1.72711" fill="white"/>
<ellipse opacity="0.6" cx="1042.67" cy="550.727" rx="1.67339" ry="1.72711" fill="white"/>
<ellipse opacity="0.7" cx="1172.67" cy="142.293" rx="1.67339" ry="1.72711" fill="white"/>
<ellipse opacity="0.7" cx="1302.67" cy="142.293" rx="1.67339" ry="1.72711" fill="white"/>
<ellipse cx="1172.67" cy="12.2925" rx="1.67339" ry="1.72711" fill="white"/>
<ellipse cx="1302.67" cy="12.2925" rx="1.67339" ry="1.72711" fill="white"/>
<ellipse cx="1172.67" cy="269.001" rx="1.67339" ry="1.72711" fill="white"/>
<ellipse cx="1302.67" cy="269.001" rx="1.67339" ry="1.72711" fill="white"/>
<ellipse opacity="0.4" cx="1172.67" cy="690.727" rx="1.67339" ry="1.72711" fill="white"/>
<ellipse opacity="0.4" cx="1302.67" cy="690.727" rx="1.67339" ry="1.72711" fill="white"/>
<ellipse cx="1172.67" cy="550.727" rx="1.67339" ry="1.72711" fill="white"/>
<ellipse cx="1302.67" cy="550.727" rx="1.67339" ry="1.72711" fill="white"/>
</g>
<path d="M127.406 148L80.9986 194.408" stroke="url(#paint0_linear_3381_2409)" stroke-width="1.15141" stroke-linecap="round"/>
<path d="M1050 541.407L1096.41 495" stroke="url(#paint1_linear_3381_2409)" stroke-width="1.15141" stroke-linecap="round"/>
<defs>
<linearGradient id="paint0_linear_3381_2409" x1="127.76" y1="148.354" x2="81.3522" y2="194.761" gradientUnits="userSpaceOnUse">
<stop stop-color="#00D395"/>
<stop offset="1" stop-color="#00D395" stop-opacity="0"/>
</linearGradient>
<linearGradient id="paint1_linear_3381_2409" x1="1049.65" y1="541.054" x2="1096.05" y2="494.646" gradientUnits="userSpaceOnUse">
<stop stop-color="#9489FE"/>
<stop offset="1" stop-color="#9489FE" stop-opacity="0"/>
</linearGradient>
</defs>
</svg>
